<?xml version="1.0" standalone="no"?>
<!DOCTYPE svg PUBLIC "-//W3C//DTD SVG 20010904//EN"
 "http://www.w3.org/TR/2001/REC-SVG-20010904/DTD/svg10.dtd">
<svg version="1.0" xmlns="http://www.w3.org/2000/svg"
 width="205.000000pt" height="205.000000pt" viewBox="0 0 205.000000 205.000000"
 preserveAspectRatio="xMidYMid meet">
<metadata>
Created by potrace 1.14, written by Peter Selinger 2001-2017
</metadata>
<g transform="translate(0.000000,205.000000) scale(0.100000,-0.100000)"
fill="#000000" stroke="none">
<path d="M950 2023 c-14 -9 -35 -25 -46 -35 -21 -19 -21 -19 -17 9 4 27 4 27
-11 -4 -8 -18 -23 -34 -33 -34 -10 -1 -29 -4 -43 -6 -14 -2 -35 -4 -47 -5 -13
0 -23 -5 -23 -12 1 -23 37 -58 64 -59 26 -2 27 -4 25 -51 -3 -51 -7 -56 -60
-59 -19 -1 -40 -8 -47 -15 -8 -7 -17 -10 -22 -7 -6 4 -19 -13 -25 -35 -1 -5
-10 -64 -21 -137 -4 -23 -1 -33 8 -33 9 0 9 -3 -2 -10 -13 -8 -13 -10 2 -10 9
0 20 5 23 10 4 6 21 10 38 9 39 -2 60 3 69 16 5 6 8 6 8 -1 0 -8 11 -9 35 -4
28 6 37 4 45 -9 5 -9 10 -13 10 -9 0 3 15 -8 33 -25 18 -18 31 -35 29 -39 -2
-5 2 -8 7 -8 6 0 11 -4 11 -9 0 -5 -17 -8 -38 -6 -32 3 -89 -6 -187 -30 -11
-3 -43 -10 -72 -15 -28 -6 -62 -21 -75 -34 -13 -12 -31 -25 -40 -29 -10 -3
-19 -17 -20 -29 0 -13 -2 -27 -3 -33 -2 -5 -3 -17 -4 -27 -1 -11 -9 -15 -31
-14 -17 1 -30 -1 -30 -5 0 -4 -8 -9 -18 -11 -15 -4 -17 -13 -14 -42 3 -30 1
-36 -14 -38 -11 -1 -26 -2 -34 -4 -8 -1 -20 -2 -27 -3 -9 -1 -8 -8 2 -28 20
-38 -1 -58 -62 -62 -6 -1 -10 -9 -8 -18 2 -10 4 -22 4 -26 1 -5 6 -5 11 -2 6
3 10 -1 10 -9 0 -16 -39 -48 -50 -41 -11 7 -33 -23 -25 -35 3 -5 12 -10 20
-10 20 0 26 -28 9 -45 -9 -8 -26 -18 -38 -21 -31 -7 -28 -32 6 -50 15 -8 28
-19 28 -25 0 -13 -20 -33 -42 -42 -36 -13 -14 -48 32 -51 24 -2 23 -33 -2 -56
-13 -11 -23 -27 -23 -33 0 -18 18 -36 30 -29 19 12 47 9 52 -5 3 -8 -4 -28
-16 -44 -29 -39 -21 -63 19 -57 17 3 30 0 30 -6 0 -6 4 -5 9 2 18 29 22 -22 4
-55 -16 -30 -16 -35 -3 -43 17 -12 59 -10 77 3 17 12 33 -22 23 -49 -10 -26
-6 -60 8 -57 5 1 21 4 36 7 14 2 30 7 36 11 5 3 10 1 10 -4 0 -6 5 -10 12 -9
14 3 17 -18 6 -49 -10 -31 16 -45 51 -27 33 17 81 18 82 2 1 -7 3 -20 4 -28 1
-8 3 -23 4 -32 0 -10 6 -18 12 -18 5 0 7 4 4 10 -3 6 1 7 9 4 11 -4 16 0 16
12 0 9 3 14 6 11 4 -3 16 -1 27 4 15 8 22 8 28 -2 7 -11 9 -11 9 -1 0 11 3 10
14 -1 13 -12 21 -38 25 -79 1 -12 41 25 41 38 0 6 9 14 21 17 13 4 18 10 14
17 -5 8 0 8 16 -1 13 -7 28 -13 33 -14 5 0 10 -9 12 -20 2 -11 8 -21 14 -23 5
-2 8 -8 4 -13 -3 -5 1 -9 10 -9 8 0 17 13 21 30 4 17 10 28 15 25 5 -3 11 1
13 7 4 10 8 9 16 -2 8 -12 11 -12 11 -1 0 11 3 11 15 1 8 -7 15 -9 15 -6 0 4
6 1 14 -6 8 -7 12 -16 9 -20 -2 -5 1 -8 7 -8 6 0 8 -5 4 -11 -4 -7 0 -10 11
-7 10 1 20 14 22 28 2 13 7 28 12 33 12 12 61 16 61 6 0 -5 6 -9 13 -9 7 0 19
-9 26 -19 12 -17 16 -17 28 -5 8 8 13 22 12 31 -4 44 1 53 29 53 15 0 33 -5
40 -12 7 -7 12 -8 12 -3 0 4 9 0 20 -10 18 -16 20 -16 26 -1 4 9 4 20 0 23 -3
3 -1 12 5 20 9 10 8 13 -4 13 -12 0 -11 5 6 24 12 14 24 21 27 17 6 -8 37 -22
59 -27 8 -1 20 5 27 14 10 14 9 22 -4 45 -22 36 -6 48 55 40 51 -6 62 8 39 52
-20 38 -13 45 39 45 51 0 65 20 34 51 -26 26 -21 54 11 55 44 2 48 4 53 25 4
15 0 23 -12 26 -26 7 -42 45 -25 61 9 8 15 8 19 1 4 -6 14 -1 26 12 19 22 19
22 -18 54 l-37 32 36 12 c44 14 44 35 0 61 -32 20 -42 52 -20 66 7 4 8 3 4 -4
-5 -8 -2 -10 8 -6 9 3 13 10 10 15 -3 5 0 9 7 9 12 0 4 14 -9 16 -34 3 -90 54
-60 54 6 0 8 3 5 7 -4 3 1 12 11 19 20 15 16 21 -22 28 -47 8 -66 55 -32 78 7
5 6 8 -4 9 -8 1 -19 2 -25 4 -5 1 -15 3 -22 3 -25 4 -43 33 -33 52 14 27 13
28 -19 25 -38 -3 -74 28 -65 57 5 18 2 19 -29 15 -28 -4 -40 0 -54 17 -11 12
-18 27 -15 34 3 9 -7 11 -35 7 -40 -6 -63 3 -66 26 -3 16 -14 20 -42 13 -26
-6 -78 13 -70 25 8 15 -15 25 -28 12 -19 -19 -62 -12 -83 12 -33 38 -34 42 -9
90 13 26 21 47 18 47 -2 0 3 7 12 16 10 11 34 17 65 18 51 1 84 22 96 60 3 11
18 32 33 46 28 26 50 67 30 54 -8 -4 -8 -1 -1 13 8 14 6 25 -9 43 -10 14 -19
28 -19 32 0 18 -45 58 -65 58 -22 0 -54 -21 -87 -57 -12 -12 -29 -20 -40 -18
-15 3 -18 0 -14 -11 4 -10 1 -14 -6 -11 -7 2 -13 12 -13 21 0 10 -7 23 -15 29
-18 14 -20 53 -3 50 9 -2 11 24 3 35 -3 3 -7 19 -9 32 0 6 -14 10 -29 10 -27
0 -97 28 -90 35 2 2 16 6 32 9 16 3 31 8 34 11 9 8 -30 6 -66 -4 -40 -12 -42
2 -2 19 17 7 30 16 30 21 0 13 -11 10 -40 -8z m57 -186 c10 -13 27 -40 38 -60
13 -25 25 -35 35 -32 12 5 11 2 -2 -11 -9 -10 -29 -18 -43 -19 -22 -1 -25 3
-21 21 3 11 -1 29 -9 40 -14 19 -14 19 -29 -1 -13 -16 -15 -17 -10 -2 3 9 2
17 -4 17 -5 0 -12 8 -15 18 -2 9 -8 25 -12 35 -12 28 49 23 72 -6z m-431 -865
c1 -15 -5 -22 -17 -22 -11 0 -19 7 -19 16 0 8 4 12 10 9 6 -4 7 1 3 11 -4 12
-2 15 8 12 8 -3 15 -14 15 -26z m717 -71 c15 -22 27 -44 27 -50 0 -6 4 -11 9
-11 14 0 6 -104 -11 -135 -16 -29 -64 -85 -73 -85 -3 0 -3 10 -2 22 2 12 1 39
-3 60 -4 21 -4 38 -1 38 4 0 7 9 7 20 0 11 -3 20 -6 20 -7 0 -4 66 5 79 3 6 2
11 -2 11 -5 0 -8 12 -7 28 1 15 3 32 3 39 2 20 24 5 54 -36z m-453 -45 c0 -3
-4 -8 -10 -11 -5 -3 -10 -1 -10 4 0 6 5 11 10 11 6 0 10 -2 10 -4z m-310 -171
c0 5 3 6 6 3 11 -11 -35 -81 -69 -103 -38 -26 -48 -23 -66 22 -12 28 -11 35 5
55 12 14 32 24 54 27 19 1 37 5 39 7 2 2 10 -1 18 -7 7 -6 13 -8 13 -4z m1091
-32 c39 -23 42 -61 8 -117 -10 -17 -22 -38 -26 -46 -39 -84 -144 -89 -179 -10
-8 18 -8 37 2 72 7 27 10 48 7 48 -4 0 2 9 12 20 10 11 14 20 9 21 -5 1 9 7
31 14 56 19 102 18 136 -2z"/>
</g>
</svg>
