<svg xml:space="preserve" style="enable-background:new 0 0 652 652;" viewBox="0 0 652 652" y="0px" x="0px" xmlns:xlink="http://www.w3.org/1999/xlink" xmlns="http://www.w3.org/2000/svg" id="layer" version="1.1">
<style type="text/css">
	.st0{fill:#E60012;}
	.st1{fill-rule:evenodd;clip-rule:evenodd;fill:#FFFFFF;}
	.st2{fill:#FFFFFF;}
	.st3{fill:#009944;}
</style>
<rect height="307.2" width="522.8" class="st0" y="70.8" x="60.1"></rect>
<path d="M202.3,154.5c-118.2,39.8-160.6,103.3-94.7,142c65.9,38.6,215.1,37.7,333.2-2.1
	c118.2-39.8,160.6-103.3,94.7-142C469.6,113.7,320.4,114.7,202.3,154.5 M437,284.2c-104.9,35.3-234.7,37.7-289.8,5.4
	c-55.2-32.4-14.9-87.2,90-122.5c104.9-35.3,234.7-37.7,289.8-5.4C582.2,194,541.9,248.9,437,284.2 M188,290.7l218.9-66.4l-64.2-17.8
	l31.7-9.6l-40.8-11.3l-49.2,59.5l-78.7,23.8l-44.9,0l78.2-94.4h163.1l82.2,22.8l-57.6,17.5l85.7,23.7l-107.6,34l-220.3,22L188,290.7
	z" class="st1"></path>
<path d="M544.4,439.7c-7.9-0.7-15.7-1-23.6-1c-11.1,0-30.8,0.4-44.5,1l-11.2,16.1c11.7-1.6,22.2-2.6,33.9-2.6c7.1,0,22.3,0.5,27.7,2
	c8.4,2.3,8.2,5.1,8.5,6.6c-6.2-0.5-12.8-0.8-23.9-0.8c-18.2,0-40.2,1.4-53,6.2c-9,3.3-13.8,7.7-13.9,13.1c0,0.9,0.1,1.7,0.4,2.6
	c-1.3,0-2.6,0.1-3.9,0.1c-20.9,0-22.8-6.7-22.8-12.6l0-14.6h26.5l11.2-16h-37.7v-24.1l-51.4,6.8l-0.1,17.3H345c0,0-2.9,4.2-5.8,8.3
	c-18.2-8.6-41.7-9.3-56.1-9.3c-43,0-64.6,9.3-71.6,23.7c-5.8-3.6-19.1-7.3-30.4-7.6c15.5-3.2,25-9.3,25-17c0-11.3-19-18.3-36.9-20.8
	c-10.3-1.4-26.9-1.4-38.3-1.5H60.2V497h92.6c15.5,0,32.3-0.3,48.3-5.3c8.1-2.6,13.5-5.7,16.8-8.8c7.8,6.3,24.8,15.5,67.9,15.5
	c30.8,0,49.6-2.6,60.9-4.5l4-13.8c-14.2,2.3-31.6,4.1-45.7,4.1c-11.7,0-25.1-0.4-34.6-5.1c-4.1-2.1-7.1-4.5-8.2-6.2h94
	c0-4,0-10.7-6.1-17.2h16.5l0,24.3c0,3.3,0.3,9.1,11.7,13.7c10.8,4.5,25.8,4.6,32.6,4.6c11.7,0,26.8-0.9,31.1-1.4
	c0,0,4.8-3.3,9.6-6.4c4.8,2.9,11.8,5.2,22.1,6.4c7.1,0.9,15.2,1.4,22.8,1.4c28,0,38.6-8,38.6-8v6.6l47.8,0v-37.7
	C582.9,455.6,582.7,443.4,544.4,439.7 M114.7,433.6h4.8c9.2,0,22.3,0.1,26.9,1c6.2,1.3,9.2,3.6,9.2,6.2c0,2.5-3.5,5.7-12.2,6.3
	c-2,0.1-20.6,0.3-28.8,0.4L114.7,433.6z M146.1,478.9c-3.8,0.3-7.6,0.3-14.9,0.3h-16.5l0-17.2H132c9.2,0,15.2,0.1,21.4,1.6
	c6,1.6,9.5,4.1,9.5,7.1C162.9,473.5,159.4,477.8,146.1,478.9 M262.2,461.8c1.9-6.9,9.9-10.7,22.1-10.7c12.2,0,20.4,3.8,22.1,10.7
	H262.2z M518.7,483.7c-10.6,0-24-0.7-24-5.9c0-3.1,4.4-4.8,17.7-6.1c3.8-0.5,5.9-0.5,8.4-0.5c2.4,0,13.9-0.2,14.5,0.3l0.1,10.8
	C535.3,483.3,524.1,483.7,518.7,483.7 M130.1,556.7h-15.5l6.8-19.3c0.4-1.2,0.2-1.9-0.8-2.1h-3.2h-2.2h-3.1
	c-1.1,0.2-1.8,0.9-2.2,2.1l-6.8,19.3H87.4l6.8-19.2c0.4-1.1,0.1-1.8-0.9-2c-0.2-0.1-1.2-0.2-2.8-0.2h-2.2h-3.1
	c-1.1,0.2-1.8,0.9-2.2,2.1l-6.8,19.3H60.4l11.2-31.8h15.7l-0.7,2.1c1.4-1.4,3.7-2.1,6.7-2.1h5.2c3.7,0,6,0.1,7.1,0.2
	c3.1,0.4,4.7,1.4,5,2.9c2-2.1,5.2-3.2,9.8-3.2h5.2c3.5,0,6.1,0.2,7.8,0.5c2.6,0.4,4.3,1.4,4.9,2.9c0.7,1.5,0.5,3.6-0.5,6.4
	L130.1,556.7z M187.7,546.9c-1.1,3-2.5,5.2-4.3,6.6c-1.8,1.4-4.3,2.4-7.4,2.8c-1.7,0.2-4.2,0.3-7.5,0.3h-18.5
	c-3.3,0-5.7-0.1-7.4-0.3c-2.8-0.4-4.6-1.4-5.4-2.8c-0.8-1.4-0.7-3.7,0.4-6.6l4.3-12.2c1-2.9,2.5-5.1,4.3-6.6
	c1.8-1.5,4.3-2.4,7.3-2.8c1.8-0.3,4.4-0.4,7.6-0.4h18.5c2.8,0,5.1,0.1,6.9,0.4c3,0.4,4.9,1.3,5.7,2.7c0.9,1.4,0.8,3.6-0.3,6.7
	L187.7,546.9z M172.9,544.2l2.4-6.8c0.4-1.2,0.2-1.9-0.7-2.1h-3.2h-11.9c-1.5,0.1-2.5,0.8-3,2.1l-2.4,6.8c-0.3,0.8-0.3,1.4-0.1,1.6
	c0.2,0.2,0.8,0.4,1.7,0.4h11.9c2.6,0,4.1-0.2,4.5-0.6C172.4,545.4,172.7,544.9,172.9,544.2 M214.9,556.7h-11.5
	c-3.2,0-5.6-0.1-7.4-0.4c-2.8-0.4-4.5-1.4-5.3-2.8c-0.7-1.4-0.6-3.6,0.4-6.6l11-31.2h15.7l-3.2,9.2h7.8l-3.7,10.5H211l-3.1,8.9
	c-0.3,0.8-0.3,1.4-0.1,1.6s0.8,0.4,1.7,0.4h9.1L214.9,556.7z M272.4,546.9c-1.1,3-2.5,5.2-4.3,6.6c-1.8,1.4-4.3,2.4-7.4,2.8
	c-1.7,0.2-4.2,0.3-7.5,0.3h-18.5c-3.3,0-5.7-0.1-7.4-0.3c-2.8-0.4-4.6-1.4-5.4-2.8c-0.8-1.4-0.7-3.7,0.4-6.6l4.3-12.2
	c1-2.9,2.5-5.1,4.3-6.6c1.8-1.5,4.3-2.4,7.3-2.8c1.8-0.3,4.4-0.4,7.6-0.4h18.5c2.8,0,5.1,0.1,6.9,0.4c3,0.4,4.9,1.3,5.7,2.7
	c0.9,1.4,0.8,3.6-0.3,6.7L272.4,546.9z M257.6,544.2l2.4-6.8c0.4-1.2,0.2-1.9-0.7-2.1h-3.2h-11.9c-1.5,0.1-2.5,0.8-3,2.1l-2.4,6.8
	c-0.3,0.8-0.3,1.4-0.1,1.6c0.2,0.2,0.8,0.4,1.7,0.4h11.9c2.6,0,4.1-0.2,4.5-0.6C257.1,545.4,257.4,544.9,257.6,544.2 M315.2,535.3
	h-15.9h-3.1c-1.1,0.2-1.8,0.9-2.2,2.1l-6.8,19.3h-15.7l11.2-31.8h15.7l-0.7,2.1c1.3-1.4,3.6-2.1,6.7-2.1h14.4L315.2,535.3z
	 M352.6,556.7h-26.8c-3.3,0-5.8-0.1-7.6-0.4c-2.7-0.4-4.4-1.4-5.1-2.8c-0.7-1.4-0.5-3.6,0.5-6.6l4.3-12.2c1-2.9,2.4-5,4.1-6.5
	c1.7-1.4,4.1-2.4,7.1-2.8c2-0.3,4.6-0.5,7.9-0.5h26.8l-3.7,10.5h-22.2h-3.1c-1.1,0.2-1.8,0.9-2.2,2.1l-2.4,6.8
	c-0.4,1.2-0.2,1.8,0.7,2h3.2h22.3L352.6,556.7z M402.5,561c-1,2.9-2.4,5.1-4.1,6.6c-1.7,1.4-4.1,2.4-7.1,2.8c-2,0.3-4.6,0.4-8,0.4
	h-8.6l3.7-10.5h4c2.1,0,3.4,0,3.9-0.1c0.5-0.1,1-0.7,1.4-2l0.6-1.6h-17c-3.3,0-5.8-0.1-7.7-0.4c-2.7-0.4-4.4-1.4-5.1-2.9
	c-0.7-1.5-0.5-3.7,0.5-6.6l7.7-21.9h15.7l-6.8,19.3c-0.4,1.2-0.2,1.8,0.7,2h3.1H392l7.5-21.3h15.7L402.5,561z M450.8,556.7H424
	c-3.3,0-5.8-0.1-7.6-0.4c-2.7-0.4-4.4-1.4-5.2-2.8c-0.7-1.4-0.5-3.6,0.5-6.6l4.3-12.2c1-2.9,2.4-5,4.1-6.5c1.7-1.4,4.1-2.4,7.1-2.8
	c2-0.3,4.6-0.5,7.9-0.5H462l-3.7,10.5h-22.3H433c-1.1,0.2-1.8,0.9-2.2,2.1l-2.4,6.8c-0.4,1.2-0.2,1.8,0.7,2h3.2h22.2L450.8,556.7z
	 M470.1,556.7h-15.7l14.5-41.1h15.7L470.1,556.7z M529.7,536.2c-1,2.8-2.2,4.7-3.8,5.9c-1.5,1.1-3.7,1.8-6.6,2
	c-0.8,0.1-3.5,0.1-8.2,0.1h-17.2c-0.7,1.5-0.4,2.4,0.9,2.7c0.5,0.1,1.4,0.1,2.7,0.1h26.4l-3.5,9.8h-31c-3.2,0-5.7-0.1-7.5-0.4
	c-2.8-0.4-4.5-1.4-5.2-2.8c-0.7-1.4-0.5-3.7,0.5-6.6l4.3-12.2c1.5-4.2,4.7-7,9.6-8.5c2.8-0.8,6.9-1.2,12.3-1.2h14.4
	c3.5,0,6,0.1,7.5,0.4c2.7,0.4,4.5,1.4,5.2,2.9c0.8,1.5,0.6,3.6-0.4,6.5L529.7,536.2z M512.4,537.7c0.9,0,1.6-0.5,2-1.6
	c0.4-1,0.1-1.5-0.9-1.5H498c-1.1,0-1.8,0.5-2.2,1.5c-0.4,1,0,1.6,1.1,1.6H512.4z M578.9,546.9c-1.1,3-2.5,5.3-4.3,6.7
	c-1.8,1.4-4.3,2.4-7.4,2.7c-1.9,0.2-4.4,0.3-7.5,0.3h-34.2l3.7-10.5H562c1.2,0,2-0.4,2.2-1.1c0.3-0.8-0.2-1.2-1.4-1.2h-17.8
	c-10.1,0-14.4-2.1-12.9-6.3l1-2.9c1.1-3,2.5-5.2,4.3-6.6c1.8-1.4,4.3-2.4,7.4-2.7c1.9-0.3,4.4-0.4,7.5-0.4h29.9l-3.7,10.5h-27.8
	c-1.4,0-2.2,0.4-2.5,1.2c-0.3,0.8,0.3,1.2,1.6,1.2h18.7c9,0,12.6,2.5,10.8,7.6L578.9,546.9z"></path>
<path d="M59.8,398.9l0-14.7h523.1l0,14.7H59.8z M61.7,397h519.4v-11H61.7L61.7,397z"></path>
<rect height="11" width="173.1" class="st2" y="386" x="234.8"></rect>
<rect height="11" width="173.1" class="st3" y="386" x="61.7"></rect>
<rect height="11" width="173.1" class="st0" y="386" x="407.9"></rect>
</svg>
